<svg xmlns="http://www.w3.org/2000/svg" width="32" height="32" viewBox="0 0 32 32">
  <rect width="32" height="32" fill="#2c3e50"/>
  <rect x="4" y="8" width="24" height="20" fill="#34495e"/>
  <rect x="6" y="10" width="3" height="3" fill="#f39c12"/>
  <rect x="10" y="10" width="3" height="3" fill="#f39c12"/>
  <rect x="14" y="10" width="3" height="3" fill="#f39c12"/>
  <rect x="18" y="10" width="3" height="3" fill="#f39c12"/>
  <rect x="22" y="10" width="3" height="3" fill="#f39c12"/>
  <rect x="6" y="14" width="3" height="3" fill="#f39c12"/>
  <rect x="10" y="14" width="3" height="3" fill="#f39c12"/>
  <rect x="14" y="14" width="3" height="3" fill="#f39c12"/>
  <rect x="18" y="14" width="3" height="3" fill="#f39c12"/>
  <rect x="22" y="14" width="3" height="3" fill="#f39c12"/>
  <rect x="6" y="18" width="3" height="3" fill="#f39c12"/>
  <rect x="10" y="18" width="3" height="3" fill="#f39c12"/>
  <rect x="14" y="18" width="3" height="3" fill="#f39c12"/>
  <rect x="18" y="18" width="3" height="3" fill="#f39c12"/>
  <rect x="22" y="18" width="3" height="3" fill="#f39c12"/>
  <rect x="13" y="22" width="6" height="6" fill="#e67e22"/>
</svg> 